# Hierarchical Translation and Rotation (.htr) file
# Generated by EVaRT
[Header]
FileType htr
DataType HTRS
FileVersion 1
NumSegments 23
NumFrames 6
DataFrameRate 120
EulerRotationOrder ZYX
CalibrationUnits mm
RotationUnits Degrees
GlobalAxisofGravity Y
BoneLengthAxis Y
ScaleFactor 1
[SegmentNames&Hierarchy]
#CHILD            PARENT
DaveRoot          GLOBAL
Spine1            DaveRoot
Spine2            Spine1
Spine3            Spine2
Spine4            Spine3
Neck              Spine4
Head              Neck
LClavicle         Spine4
LUpperArm         LClavicle
LLowerArm         LUpperArm
LHand             LLowerArm
RClavicle         Spine4
RUpperArm         RClavicle
RLowerArm         RUpperArm
RHand             RLowerArm
RUpperLeg         DaveRoot
RLowerLeg         RUpperLeg
RFoot             RLowerLeg
RToes             RFoot
LUpperLeg         DaveRoot
LLowerLeg         LUpperLeg
LFoot             LLowerLeg
LToes             LFoot
[BasePosition]
#SegmentName      Tx   Ty   Tz   Rx   Ry   Rz   BoneLength
DaveRoot          -2055.569378	951.555595	-349.488296	-55.286396	87.050266	-65.121985	100.000000
Spine1            0.000000	100.000000	0.000000	-15.583766	0.109194	-2.004305	100.000000
Spine2            0.000000	100.000000	0.000000	5.873579	0.737526	-1.849210	100.000000
Spine3            0.000000	100.000000	0.000000	12.197367	0.936767	-1.756723	100.000000
Spine4            0.000000	100.000000	0.000000	13.310112	2.040835	-0.212222	100.000000
Neck              0.000000	100.000000	0.000000	12.619245	0.173111	5.676401	80.000000
Head              0.000000	80.000000	0.000000	-46.107413	-7.464542	12.340102	200.000000
LClavicle         0.000000	100.000000	0.000000	1.044460	-1.911847	-125.483710	200.000000
LUpperArm         0.000000	200.000000	0.000000	43.357802	45.679579	2.001361	300.000000
LLowerArm         0.000000	300.000000	0.000000	0.730208	2.175812	1.895763	200.000000
LHand             0.000000	200.000000	0.000000	7.864047	-1.768569	8.793625	120.000000
RClavicle         0.000000	100.000000	0.000000	-0.545713	-3.840301	119.120382	200.000000
RUpperArm         0.000000	200.000000	0.000000	38.253382	-38.646808	20.273438	300.000000
RLowerArm         0.000000	300.000000	0.000000	3.077531	-3.682026	-7.348670	200.000000
RHand             0.000000	200.000000	0.000000	24.943087	4.220171	-5.193807	120.000000
RUpperLeg         -115.911102	-10.000000	31.058285	22.464267	14.037388	-176.329742	530.000000
RLowerLeg         0.000000	530.000000	0.000000	-23.704548	0.479387	-2.520024	460.000000
RFoot             0.000000	460.000000	0.000000	90.327319	5.730808	-0.531790	130.000000
RToes             0.000000	130.000000	0.000000	18.726053	0.005479	-0.002881	100.000000
LUpperLeg         115.911102	-10.000000	31.058285	16.272232	9.077962	178.396881	530.000000
LLowerLeg         0.000000	530.000000	0.000000	-9.044305	-3.275937	3.046484	460.000000
LFoot             0.000000	460.000000	0.000000	80.193205	-12.160808	23.252942	130.000000
LToes             0.000000	130.000000	0.000000	33.283153	-0.000000	-0.000086	100.000000
#Beginning of Data.
[DaveRoot]
#Fr	Tx	Ty	Tz	Rx	Ry	Rz	SF
833	1967.628031	-740.275931	-160.438693	179.852653	-41.432213	-142.483621	1.000000	
834	1965.363151	-738.304011	-159.135516	179.985078	-41.865567	-142.075208	1.000000	
835	1963.176224	-736.380226	-157.725127	-179.927626	-42.290292	-141.675096	1.000000	
836	1961.141783	-734.550044	-156.109419	-179.860920	-42.714491	-141.320179	1.000000	
837	1959.328673	-732.812230	-154.237760	-179.802005	-43.147322	-141.046442	1.000000	
838	1957.730578	-731.149398	-152.155433	-179.730710	-43.592341	-140.841990	1.000000	
[Spine1]
#Fr	Tx	Ty	Tz	Rx	Ry	Rz	SF
833	0.000000	0.000000	0.000000	5.118878	6.122367	4.824111	1.000000	
834	0.000000	0.000000	0.000000	5.129922	6.075146	4.775155	1.000000	
835	0.000000	0.000000	0.000000	5.157213	6.025421	4.725176	1.000000	
836	0.000000	0.000000	0.000000	5.197339	5.964447	4.668300	1.000000	
837	0.000000	0.000000	0.000000	5.270186	5.897775	4.600215	1.000000	
838	0.000000	0.000000	0.000000	5.357067	5.827016	4.524344	1.000000	
[Spine2]
#Fr	Tx	Ty	Tz	Rx	Ry	Rz	SF
833	0.000000	0.000000	0.000000	5.118878	6.122367	4.824111	1.000000	
834	0.000000	0.000000	0.000000	5.129922	6.075146	4.775155	1.000000	
835	0.000000	0.000000	0.000000	5.157213	6.025421	4.725176	1.000000	
836	0.000000	0.000000	0.000000	5.197339	5.964447	4.668300	1.000000	
837	0.000000	0.000000	0.000000	5.270186	5.897775	4.600215	1.000000	
838	0.000000	0.000000	0.000000	5.357067	5.827016	4.524344	1.000000	
[Spine3]
#Fr	Tx	Ty	Tz	Rx	Ry	Rz	SF
833	0.000000	0.000000	0.000000	5.118878	6.122367	4.824111	1.000000	
834	0.000000	0.000000	0.000000	5.129922	6.075146	4.775155	1.000000	
835	0.000000	0.000000	0.000000	5.157213	6.025421	4.725176	1.000000	
836	0.000000	0.000000	0.000000	5.197339	5.964447	4.668300	1.000000	
837	0.000000	0.000000	0.000000	5.270186	5.897775	4.600215	1.000000	
838	0.000000	0.000000	0.000000	5.357067	5.827016	4.524344	1.000000	
[Spine4]
#Fr	Tx	Ty	Tz	Rx	Ry	Rz	SF
833	0.000000	0.000000	0.000000	5.118878	6.122367	4.824111	1.000000	
834	0.000000	0.000000	0.000000	5.129922	6.075146	4.775155	1.000000	
835	0.000000	0.000000	0.000000	5.157213	6.025421	4.725176	1.000000	
836	0.000000	0.000000	0.000000	5.197339	5.964447	4.668300	1.000000	
837	0.000000	0.000000	0.000000	5.270186	5.897775	4.600215	1.000000	
838	0.000000	0.000000	0.000000	5.357067	5.827016	4.524344	1.000000	
[Neck]
#Fr	Tx	Ty	Tz	Rx	Ry	Rz	SF
833	0.000000	0.000000	0.000000	-2.593851	16.744706	-13.961839	1.000000	
834	0.000000	0.000000	0.000000	-2.916102	17.008120	-13.890888	1.000000	
835	0.000000	0.000000	0.000000	-3.252018	17.274288	-13.826258	1.000000	
836	0.000000	0.000000	0.000000	-3.575974	17.558748	-13.768277	1.000000	
837	0.000000	0.000000	0.000000	-3.948333	17.837207	-13.746577	1.000000	
838	0.000000	0.000000	0.000000	-4.323860	18.108494	-13.750007	1.000000	
[Head]
#Fr	Tx	Ty	Tz	Rx	Ry	Rz	SF
833	0.000000	0.000000	0.000000	-2.593851	16.744706	-13.961839	1.000000	
834	0.000000	0.000000	0.000000	-2.916102	17.008120	-13.890888	1.000000	
835	0.000000	0.000000	0.000000	-3.252018	17.274288	-13.826258	1.000000	
836	0.000000	0.000000	0.000000	-3.575974	17.558748	-13.768277	1.000000	
837	0.000000	0.000000	0.000000	-3.948333	17.837207	-13.746577	1.000000	
838	0.000000	0.000000	0.000000	-4.323860	18.108494	-13.750007	1.000000	
[LClavicle]
#Fr	Tx	Ty	Tz	Rx	Ry	Rz	SF
833	0.000000	0.000000	0.000000	5.017220	-0.486822	26.542493	1.000000	
834	0.000000	0.000000	0.000000	4.892692	-0.472963	26.522629	1.000000	
835	0.000000	0.000000	0.000000	4.803606	-0.463939	26.518257	1.000000	
836	0.000000	0.000000	0.000000	4.771033	-0.461928	26.531897	1.000000	
837	0.000000	0.000000	0.000000	4.693909	-0.456461	26.556448	1.000000	
838	0.000000	0.000000	0.000000	4.649102	-0.457285	26.619792	1.000000	
[LUpperArm]
#Fr	Tx	Ty	Tz	Rx	Ry	Rz	SF
833	0.000000	0.000000	0.000000	138.681057	-62.262161	179.079205	1.000000	
834	0.000000	0.000000	0.000000	138.928853	-62.840650	179.071788	1.000000	
835	0.000000	0.000000	0.000000	139.108534	-63.335824	179.131684	1.000000	
836	0.000000	0.000000	0.000000	139.307621	-63.704755	179.096428	1.000000	
837	0.000000	0.000000	0.000000	139.336247	-63.914393	179.296701	1.000000	
838	0.000000	0.000000	0.000000	139.318781	-63.981967	179.484977	1.000000	
[LLowerArm]
#Fr	Tx	Ty	Tz	Rx	Ry	Rz	SF
833	0.000000	0.000000	0.000000	102.560284	-0.000000	-0.000000	1.000000	
834	0.000000	0.000000	0.000000	100.513414	-0.000000	-0.000000	1.000000	
835	0.000000	0.000000	0.000000	98.827097	-0.000000	-0.000000	1.000000	
836	0.000000	0.000000	0.000000	97.589815	-0.000000	-0.000000	1.000000	
837	0.000000	0.000000	0.000000	96.793250	-0.000000	-0.000000	1.000000	
838	0.000000	0.000000	0.000000	96.395439	-0.000000	-0.000000	1.000000	
[LHand]
#Fr	Tx	Ty	Tz	Rx	Ry	Rz	SF
833	0.000000	0.000000	0.000000	-2.924825	0.000000	0.000000	1.000000	
834	0.000000	0.000000	0.000000	-2.410173	0.000000	0.000000	1.000000	
835	0.000000	0.000000	0.000000	-1.812734	0.000000	0.000000	1.000000	
836	0.000000	0.000000	0.000000	-1.227176	0.000000	0.000000	1.000000	
837	0.000000	0.000000	0.000000	-0.750520	0.000000	0.000000	1.000000	
838	0.000000	0.000000	0.000000	-0.393273	0.000000	0.000000	1.000000	
[RClavicle]
#Fr	Tx	Ty	Tz	Rx	Ry	Rz	SF
833	0.000000	0.000000	0.000000	4.588405	0.831573	-21.546889	1.000000	
834	0.000000	0.000000	0.000000	4.501736	0.810031	-21.475938	1.000000	
835	0.000000	0.000000	0.000000	4.405114	0.786085	-21.394320	1.000000	
836	0.000000	0.000000	0.000000	4.417170	0.782111	-21.317346	1.000000	
837	0.000000	0.000000	0.000000	4.382547	0.768496	-21.222932	1.000000	
838	0.000000	0.000000	0.000000	4.362227	0.756436	-21.115006	1.000000	
[RUpperArm]
#Fr	Tx	Ty	Tz	Rx	Ry	Rz	SF
833	0.000000	0.000000	0.000000	42.822744	11.970593	-40.957049	1.000000	
834	0.000000	0.000000	0.000000	42.936371	12.026865	-41.029044	1.000000	
835	0.000000	0.000000	0.000000	43.055031	12.265547	-40.962545	1.000000	
836	0.000000	0.000000	0.000000	43.335749	12.412284	-41.060280	1.000000	
837	0.000000	0.000000	0.000000	43.329651	12.228771	-41.484153	1.000000	
838	0.000000	0.000000	0.000000	43.408331	12.503881	-41.415232	1.000000	
[RLowerArm]
#Fr	Tx	Ty	Tz	Rx	Ry	Rz	SF
833	0.000000	0.000000	0.000000	56.845271	-0.000000	-0.000000	1.000000	
834	0.000000	0.000000	0.000000	57.695583	-0.000000	-0.000000	1.000000	
835	0.000000	0.000000	0.000000	57.689330	-0.000000	-0.000000	1.000000	
836	0.000000	0.000000	0.000000	57.464998	-0.000000	-0.000000	1.000000	
837	0.000000	0.000000	0.000000	58.106941	-0.000000	-0.000000	1.000000	
838	0.000000	0.000000	0.000000	58.165642	-0.000000	-0.000000	1.000000	
[RHand]
#Fr	Tx	Ty	Tz	Rx	Ry	Rz	SF
833	0.000000	0.000000	0.000000	-62.817223	-82.153840	55.020295	1.000000	
834	0.000000	0.000000	0.000000	-68.500649	-81.467832	60.450894	1.000000	
835	0.000000	0.000000	0.000000	-67.208209	-82.548189	59.800079	1.000000	
836	0.000000	0.000000	0.000000	-62.081367	-82.705499	54.990503	1.000000	
837	0.000000	0.000000	0.000000	-62.229023	-81.935720	54.443218	1.000000	
838	0.000000	0.000000	0.000000	-60.915939	-82.749552	53.597672	1.000000	
[RUpperLeg]
#Fr	Tx	Ty	Tz	Rx	Ry	Rz	SF
833	0.000000	0.000000	0.000000	79.992128	-7.192628	-31.421633	1.000000	
834	0.000000	0.000000	0.000000	79.623343	-7.496609	-31.411754	1.000000	
835	0.000000	0.000000	0.000000	79.227877	-7.842633	-31.448099	1.000000	
836	0.000000	0.000000	0.000000	78.808519	-8.205975	-31.554738	1.000000	
837	0.000000	0.000000	0.000000	78.361554	-8.571524	-31.751462	1.000000	
838	0.000000	0.000000	0.000000	77.910766	-8.909847	-32.017216	1.000000	
[RLowerLeg]
#Fr	Tx	Ty	Tz	Rx	Ry	Rz	SF
833	0.000000	0.000000	0.000000	-54.610120	0.000000	0.000000	1.000000	
834	0.000000	0.000000	0.000000	-54.757528	0.000000	0.000000	1.000000	
835	0.000000	0.000000	0.000000	-54.864199	0.000000	0.000000	1.000000	
836	0.000000	0.000000	0.000000	-54.916849	0.000000	0.000000	1.000000	
837	0.000000	0.000000	0.000000	-54.913817	0.000000	0.000000	1.000000	
838	0.000000	0.000000	0.000000	-54.871392	0.000000	0.000000	1.000000	
[RFoot]
#Fr	Tx	Ty	Tz	Rx	Ry	Rz	SF
833	0.000000	0.000000	0.000000	1.549393	-8.671469	-14.567241	1.000000	
834	0.000000	0.000000	0.000000	1.902174	-8.302482	-14.726521	1.000000	
835	0.000000	0.000000	0.000000	2.279961	-7.577901	-14.760031	1.000000	
836	0.000000	0.000000	0.000000	2.619348	-6.766239	-14.720873	1.000000	
837	0.000000	0.000000	0.000000	2.912107	-6.115657	-14.659483	1.000000	
838	0.000000	0.000000	0.000000	3.200688	-5.697400	-14.598287	1.000000	
[RToes]
#Fr	Tx	Ty	Tz	Rx	Ry	Rz	SF
833	0.000000	0.000000	0.000000	0.914651	0.000000	0.000000	1.000000	
834	0.000000	0.000000	0.000000	0.538145	0.000000	0.000000	1.000000	
835	0.000000	0.000000	0.000000	0.094982	0.000000	0.000000	1.000000	
836	0.000000	0.000000	0.000000	-0.192353	-0.000000	0.000000	1.000000	
837	0.000000	0.000000	0.000000	-0.273175	-0.000000	0.000000	1.000000	
838	0.000000	0.000000	0.000000	-0.294327	0.000000	0.000000	1.000000	
[LUpperLeg]
#Fr	Tx	Ty	Tz	Rx	Ry	Rz	SF
833	0.000000	0.000000	0.000000	89.988357	-12.458464	-63.730273	1.000000	
834	0.000000	0.000000	0.000000	89.985366	-12.422525	-64.265720	1.000000	
835	0.000000	0.000000	0.000000	89.929856	-12.394223	-64.654538	1.000000	
836	0.000000	0.000000	0.000000	89.814984	-12.362593	-64.908038	1.000000	
837	0.000000	0.000000	0.000000	89.633026	-12.341646	-65.078577	1.000000	
838	0.000000	0.000000	0.000000	89.398253	-12.313953	-65.203214	1.000000	
[LLowerLeg]
#Fr	Tx	Ty	Tz	Rx	Ry	Rz	SF
833	0.000000	0.000000	0.000000	-35.928777	0.000000	-0.000000	1.000000	
834	0.000000	0.000000	0.000000	-36.256633	0.000000	-0.000000	1.000000	
835	0.000000	0.000000	0.000000	-36.599494	0.000000	-0.000000	1.000000	
836	0.000000	0.000000	0.000000	-36.950004	0.000000	-0.000000	1.000000	
837	0.000000	0.000000	0.000000	-37.290104	0.000000	-0.000000	1.000000	
838	0.000000	0.000000	0.000000	-37.608986	0.000000	-0.000000	1.000000	
[LFoot]
#Fr	Tx	Ty	Tz	Rx	Ry	Rz	SF
833	0.000000	0.000000	0.000000	-11.250005	16.902951	-57.400532	1.000000	
834	0.000000	0.000000	0.000000	-11.351011	16.524742	-57.702937	1.000000	
835	0.000000	0.000000	0.000000	-11.395392	16.052893	-58.016300	1.000000	
836	0.000000	0.000000	0.000000	-11.401943	15.451482	-58.328495	1.000000	
837	0.000000	0.000000	0.000000	-11.394844	14.759961	-58.628560	1.000000	
838	0.000000	0.000000	0.000000	-11.393726	14.058396	-58.902939	1.000000	
[LToes]
#Fr	Tx	Ty	Tz	Rx	Ry	Rz	SF
833	0.000000	0.000000	0.000000	10.788557	-0.000000	0.000000	1.000000	
834	0.000000	0.000000	0.000000	10.976198	-0.000000	0.000000	1.000000	
835	0.000000	0.000000	0.000000	11.032748	-0.000000	0.000000	1.000000	
836	0.000000	0.000000	0.000000	10.983680	-0.000000	0.000000	1.000000	
837	0.000000	0.000000	0.000000	10.893267	-0.000000	0.000000	1.000000	
838	0.000000	0.000000	0.000000	10.825469	-0.000000	0.000000	1.000000	
